<?xml version="1.0" encoding="UTF-8"?><svg xmlns="http://www.w3.org/2000/svg" width="692.42" height="956.77" viewBox="0 0 692.42 956.77"><defs><style>.e,.f{fill:none;}.g{fill:#f8b87c;}.h,.i,.j{fill:#f29c62;}.k{fill:#fff39a;}.l{fill:#fce9df;}.m{fill:#fdebde;}.n{fill:#c78363;}.o,.p{fill:#34161e;}.i{opacity:.2;}.f{stroke:#1d1d1b;stroke-miterlimit:10;}.p,.j{opacity:.5;}</style></defs><g id="a"><circle class="k" cx="45.05" cy="593.73" r="1.09"/><circle class="k" cx="85.23" cy="828.78" r="2.35"/></g><g id="b"/><g id="c"/><g id="d"><path class="l" d="M435.35,120.66c-4.38-43.88-31.44-91.13-73.02-101.05-34.99-8.36-72.13-7.72-106.81,1.84-19.21,5.33-38.58,14.03-50.34,30.09-6.83,9.38-10.66,20.62-13.67,31.81-5.36,19.92-8.61,40.63-6.77,61.16,.03,.18,.03,.37,.06,.55,1.07,11.25,3.77,22.31,7.87,32.85,.15,.37,.31,.74,.43,1.1v.03c3.22,7.97,7.23,15.63,11.98,22.83v.03c9.96,15.2,23.1,28.34,38.45,38.09l.09,.09c1.1,.67,2.18,1.35,3.31,1.99,3.46,2.05,7.02,3.89,10.66,5.58,3.03,1.41,6.16,2.67,9.28,3.8,1.01,.34,1.99,.67,2.97,1.01,1.75,.58,3.49,1.13,5.27,1.59,.21,.06,.43,.12,.67,.18,.74,.21,1.5,.4,2.27,.61,.12,.03,.21,.06,.31,.09,.52,.12,1.01,.25,1.53,.34,.37,.12,.77,.18,1.13,.28,.31,.09,.58,.15,.86,.18,.43,.09,.86,.18,1.29,.28,.31,.09,.61,.15,.89,.21,.91,.19,1.84,.31,2.76,.48,.73,.13,1.45,.26,2.19,.38,.7,.11,1.4,.27,2.1,.37,.64,.06,1.29,.18,1.93,.25,.28,.03,.55,.06,.8,.09,.77,.09,1.56,.18,2.33,.28h.21s.09,.03,.15,.03c.58,.06,1.16,.12,1.75,.15,.46,.06,.95,.09,1.44,.12,1.78,.15,3.55,.25,5.36,.31,.43,.03,.86,.03,1.32,.03,2.36,.06,4.75,.06,7.11,0h.21c.89-.03,1.78-.09,2.7-.12,.34,0,.67-.03,1.04-.06,.64-.03,1.32-.06,1.99-.15,.31,0,.64,0,.95-.06,.25,0,.49-.03,.74-.06,.12,0,.21-.03,.31-.03,.89-.09,1.75-.15,2.6-.28,.37-.03,.77-.09,1.13-.12,1.04-.12,2.11-.28,3.19-.43,.98-.12,1.93-.28,2.91-.46,.37-.03,.7-.09,1.07-.18,.92-.15,1.81-.34,2.73-.49,1.62-.34,3.25-.67,4.87-1.07,.77-.18,1.5-.37,2.27-.55,.43-.12,.86-.21,1.29-.37,.92-.21,1.84-.49,2.76-.77,1.41-.4,2.82-.83,4.23-1.32,.89-.28,1.78-.58,2.64-.89,.92-.31,1.84-.64,2.73-1.01,1.32-.49,2.64-1.01,3.92-1.56,.61-.25,1.23-.52,1.84-.77,.43-.18,.86-.4,1.29-.61,.4-.15,.83-.34,1.23-.55,1.04-.46,2.08-.95,3.09-1.47,1.1-.55,2.21-1.13,3.28-1.72,4.41-2.36,8.67-5.02,12.75-7.94,35.88-25.62,56.5-71.12,52.09-114.99Zm-21.63,26.84c-.58,4.44-1.44,8.82-2.57,13.18-.95,3.62-2.14,7.14-3.52,10.63-1.07,2.57-2.24,5.15-3.49,7.63-.83,1.69-1.75,3.31-2.7,4.93-1.41,2.42-2.94,4.78-4.6,7.05-1.07,1.53-2.21,3-3.4,4.44-1.78,2.18-3.65,4.26-5.61,6.25-9.77,9.99-21.82,17.53-35.27,21.17-1.75,.46-3.46,.86-5.21,1.23-14.19,2.79-28.83,1.53-42.93-2.33-1.13-.31-2.24-.61-3.34-.95-2.21-.67-4.41-1.41-6.59-2.21-5.45-1.96-10.75-4.29-15.9-6.86-.89-.46-1.81-.92-2.67-1.38-17.43-9.13-33.89-21.66-43.08-39.07-8.86-16.7-10.26-36.34-9.07-55.18,.31-4.93,.8-9.9,1.59-14.8,1.1-6.86,2.76-13.6,5.33-19.98,.37-.92,.77-1.84,1.13-2.73,.8-1.78,1.69-3.52,2.67-5.24,.49-.86,.98-1.72,1.5-2.54,2.14-3.43,4.6-6.59,7.26-9.5,.92-.98,1.87-1.93,2.82-2.82,1.9-1.84,3.92-3.55,6.04-5.15,4.23-3.25,8.82-6.04,13.63-8.4h.03c2.42-1.2,4.87-2.27,7.38-3.25,5.06-1.93,10.23-3.46,15.47-4.57,5.12-1.07,10.26-1.81,15.41-2.3,8.27-.77,16.58-.8,24.91-.46,3.31,.12,6.59,.31,9.9,.55,4.6,.34,9.16,.74,13.73,1.16,16.09-2.21,35.6,17.5,46.48,38.09,11.83,22.4,17.77,48.38,14.65,73.38Z"/><path class="n" d="M411.14,160.67c-.95,3.62-2.14,7.14-3.52,10.63,1.41-3.49,2.6-7.02,3.55-10.63,1.16-4.35,1.99-8.76,2.54-13.18-.58,4.44-1.44,8.82-2.57,13.18Zm-3.52,10.63c-1.07,2.57-2.24,5.15-3.49,7.63,1.29-2.48,2.45-5.06,3.49-7.63Zm-14.19,24.05c-1.78,2.18-3.65,4.26-5.61,6.25,1.96-1.96,3.83-4.04,5.61-6.25Zm-89.01,26.32c14.09,3.86,28.74,5.15,42.93,2.33-14.19,2.79-28.83,1.53-42.93-2.33Z"/><path class="n" d="M413.72,147.5c-.58,4.44-1.44,8.82-2.57,13.18-.95,3.62-2.14,7.14-3.52,10.63-1.07,2.57-2.24,5.15-3.49,7.63-.86,1.69-1.75,3.31-2.7,4.93-1.41,2.42-2.94,4.78-4.6,7.05-1.1,1.53-2.24,3-3.4,4.44-1.78,2.18-3.65,4.26-5.61,6.25-9.77,9.99-21.82,17.53-35.27,21.17-1.75,.46-3.46,.86-5.21,1.23-14.19,2.79-28.83,1.53-42.93-2.33-1.13-.31-2.24-.61-3.34-.95-2.21-.67-4.41-1.41-6.59-2.21-5.45-1.96-10.75-4.29-15.9-6.86-9.04-31.47-8.98-67.87,1.81-98.75,10.66-30.52,32.26-59.01,58.46-78.04,4.6,.34,9.16,.74,13.73,1.16,16.09-2.21,35.6,17.5,46.48,38.09,11.83,22.4,17.77,48.38,14.65,73.38Z"/><path class="o" d="M338.86,34.86c-26.2,19.03-47.8,47.52-58.46,78.04-10.79,30.89-10.85,67.29-1.81,98.75-.89-.46-1.81-.92-2.67-1.38-17.43-9.13-33.89-21.66-43.08-39.07-8.86-16.7-10.26-36.34-9.07-55.18,.31-4.93,.8-9.9,1.59-14.8,1.1-6.86,2.79-13.6,5.33-19.98,.37-.92,.77-1.84,1.13-2.73,.83-1.78,1.69-3.52,2.67-5.24,.49-.86,.98-1.72,1.5-2.54,2.14-3.43,4.6-6.59,7.26-9.5,.95-.98,1.87-1.9,2.82-2.82,1.9-1.81,3.92-3.52,6.04-5.15,4.23-3.22,8.82-6.01,13.63-8.4h.03c2.42-1.2,4.87-2.27,7.38-3.25,5.06-1.93,10.23-3.46,15.47-4.57,5.12-1.07,10.26-1.81,15.41-2.3,8.27-.74,16.58-.8,24.91-.46,3.31,.12,6.59,.31,9.9,.55Z"/><path class="f" d="M339.9,34.13c-.34,.24-.69,.49-1.03,.74"/><path class="g" d="M243.52,239.97c-5.25,5.22-10.52,10.49-15.8,15.78-42.23,42.35-85.37,86.56-127.45,128.54-1.68,1.68-3.34,3.33-5.01,4.99-11.61-5.25-23.24-10.5-34.85-15.75,.08-.51,.18-1.04,.27-1.56,.19-1.12,.41-2.23,.64-3.34,4.94-23.98,17.69-45.79,34.19-64.24,4.56-5.1,9.41-9.95,14.44-14.51,24.51-22.16,53.64-38.45,82.51-54.52-.57-18.77,1.22-37.57,.65-56.35,3.21,7.99,7.21,15.65,11.95,22.85h0c9.98,15.23,23.12,28.37,38.45,38.1Z"/><path class="m" d="M117.93,434.4c.01,.45,0,.88-.01,1.33v.07c-.01,.58-.05,1.18-.11,1.76v.05c-.05,.54-.11,1.1-.19,1.64,0,.05-.01,.09-.01,.15-.08,.54-.18,1.08-.28,1.61-.11,.65-.26,1.29-.42,1.92-.12,.5-.24,.99-.39,1.48-.11,.38-.22,.76-.34,1.14-.09,.35-.22,.68-.34,1.02-.09,.31-.2,.64-.32,.96-.07,.2-.15,.41-.23,.61-.31,.87-.65,1.71-1.02,2.56-.12,.27-.24,.55-.37,.84-.12,.28-.24,.55-.38,.84-.11,.24-.22,.5-.34,.74-.01,.03-.03,.07-.04,.09-.18,.37-.34,.73-.53,1.1-1.29,2.68-2.71,5.32-4.13,7.9-9.64,17.69-19.27,35.39-28.92,53.08-.85,1.56-1.73,3.15-2.64,4.72-6.21,10.73-14.05,21.26-25.92,23.61-10.39,2.04-21.33-3.33-27.9-11.65-6.56-8.32-9.3-19.13-9.92-29.71-1.23-21.14,5.35-42.15,15.3-60.83,8.69-16.31,19.9-31.08,31.36-45.57,1.68-2.13,3.37-4.25,5.05-6.36,9.49,4.26,22.24,7.2,33.12,13.95,9.52,5.91,17.49,15.39,19.45,26.24,.09,.53,.18,1.06,.24,1.6,.01,.01,.01,.04,.01,.05,0,.05,.01,.12,.01,.18,.05,.45,.11,.89,.14,1.35,.04,.5,.07,1.02,.07,1.53Z"/><path class="f" d="M117.46,429.69c-.15,.07-.28,.15-.43,.22"/><path class="m" d="M117.92,435.79c.01,.11,.01,.22,.01,.32,.16,9.91-4.7,19.11-9.45,27.8-9.64,17.69-19.27,35.39-28.92,53.08-.85,1.56-1.73,3.15-2.64,4.72-.24,7.01-.5,21.22-.74,29.24-.01-.01-.03-.01-.04-.03,.24-7.54,.53-23.39,.78-30.93,.91-1.57,1.79-3.17,2.64-4.72,9.65-17.69,19.29-35.39,28.92-53.08,1.42-2.59,2.84-5.22,4.13-7.9,.19-.37,.35-.73,.53-1.1,.01-.03,.03-.07,.04-.09,.12-.24,.23-.5,.34-.74,.14-.28,.26-.55,.38-.84,.12-.28,.24-.57,.37-.84,.37-.85,.7-1.69,1.02-2.56,.08-.2,.16-.41,.23-.61,.12-.32,.23-.64,.32-.96,.12-.34,.24-.66,.34-1.02,.12-.38,.23-.76,.34-1.14,.15-.49,.27-.97,.39-1.48,.16-.64,.31-1.27,.42-1.92,.11-.53,.2-1.07,.28-1.61,0-.05,.01-.09,.01-.15,.08-.54,.14-1.1,.19-1.64v-.05c.05-.58,.09-1.16,.11-1.76Z"/><path class="m" d="M158.89,539.84c.01,14.96,.45,29.82,1.31,44.46-.03,0-.07-.01-.09-.01-.84-14.66-1.23-29.51-1.22-44.45Z"/><path class="m" d="M170.76,400.78c-.11,.64-.22,1.27-.32,1.92-10.91,6.98-22.39,13.25-33.99,19.19-6.23,3.21-12.51,6.32-18.75,9.39-.07-.54-.15-1.07-.24-1.6,6.08-3,12.2-6.02,18.27-9.15,1.15-.57,2.29-1.16,3.44-1.76,2.42-1.26,4.83-2.53,7.24-3.82,4.98-2.67,9.91-5.41,14.75-8.28,.73-.42,1.45-.85,2.17-1.29,.84-.51,1.69-1.02,2.52-1.54,1.65-1,3.29-2.03,4.91-3.07Z"/><path class="f" d="M170.77,400.73s0,.04-.01,.05"/><path class="f" d="M170.77,400.78s.01-.08,.01-.08"/><path class="g" d="M230.54,602.34c-5.77-3.17-11.84-5.91-17.81-8.61-17.04-7.69-34.1-12.61-52.53-9.43-3.55-60.3,.12-124,10.56-183.52h.01c15.35-9.83,29.56-21.09,41.44-34.91,6.24-7.25,11.46-15.61,15.51-24.59h0c.08-.16,.15-.31,.22-.46-9.51,82.98-6.59,178.53,2.6,261.53Z"/><path class="f" d="M230.57,602.62c-.01-.09-.01-.18-.03-.27"/><path class="f" d="M228,340.32c-.01,.16-.04,.34-.05,.5"/><path class="m" d="M512.36,325.52c-1.3,16.26-1.72,32.59-1.29,48.89-29.26-.23-56.2,.19-85.42,1.42,.62-12.75,1.25-25.49,1.88-38.24-1.15-.14-2.29-.27-3.44-.41-48.21-5.51-96.87-6.51-142.89-1.76-7.69,3.18-16.49,4.6-24.17,7.78,.12,33.17-1.1,66.34-3.65,99.4,48.35,.64,96.65,1.98,144.96,4.03-4.3,40.62-8.69,83.71-12.91,123.43-33.28,5.47-63.24,21.71-87.57,45.06-14.86,2.48-29.9,3.9-45.64,3.79-6.01-6.94-13.56-12.15-21.67-16.58-9.19-83-12.11-178.54-2.6-261.53,.01-.04,.04-.08,.05-.12,11.78-26.52,12.56-59.81-.27-84.95,5.28-5.29,10.54-10.56,15.8-15.78,4.51,2.87,9.2,5.43,14.08,7.66,35.49,16.3,78.61,14.44,112.92-4.03,49.67,12.21,99.13,30.03,145.14,52.41-1.42,9.8-2.52,19.65-3.3,29.52Z"/><path class="m" d="M677.15,357.03c-2.13,4.83-5.63,8.89-9.84,12.1-2.73,2.1-5.78,3.83-8.93,5.17-8.01,3.41-16.78,4.62-25.46,5.36-36.33,3.09-72.83-1.48-109.03-6.02-2.34-14.85-3.06-30.93-2.45-47.39,.35-9.64,1.15-19.4,2.33-29.11,34.05-.88,68.39-1.76,101.92,4.29,14.36,2.59,29.05,6.73,40.05,16.31,11,9.6,17.27,25.92,11.41,39.29Z"/><path class="g" d="M427.53,337.6c-.64,12.75-1.26,25.49-1.88,38.24-.47,9.65-.95,19.29-1.42,28.92-.34,6.84-.68,13.66-1.02,20.48-7.57,.32-15.13,.6-22.7,.81-40.85,1.19-81.73,.81-122.53-1.12-1.19-29.86-.11-59.8,3.22-89.49,46.02-4.75,94.68-3.75,142.89,1.76,1.15,.14,2.29,.27,3.44,.41Z"/><path class="h" d="M400.52,426.05c-.72,6.78-1.45,13.66-2.18,20.6-48.31-2.06-96.61-3.4-144.96-4.03,2.56-33.07,3.78-66.23,3.65-99.4,7.69-3.18,16.49-4.6,24.17-7.78-3.33,29.7-4.41,59.64-3.22,89.49,40.81,1.94,81.68,2.31,122.53,1.12Z"/><path class="f" d="M399.05,446.68c-.23-.01-.47-.01-.7-.03"/><path class="m" d="M401.4,777.2c-.77,7.44-2.07,15.57-7.69,20.51-4.85,4.29-11.76,5.12-18.22,5.59-2.21,.16-4.4,.31-6.6,.43-11.25,.65-22.54,.83-33.8,.53-9.08-.23-18.15-.79-27.19-1.64-.53-.05-1.06-.09-1.6-.15-5.2-.57-10.53-1.6-14.28-5.13-5.73-5.39-5.6-14.36-4.91-22.18,4.56-52.25,15.63-103.68,20.68-151.09,4.62-4.11,9.49-7.93,14.58-11.41,17.85-12.24,38.43-20.51,59.8-23.89,19.18,60.62,25.76,125.2,19.23,188.44Z"/><path class="m" d="M165.71,902.21c-2.88,6.54-9.92,10.25-16.8,12.2-15.17,4.32-32.02,2.31-45.76-5.43-13.75-7.73-24.2-21.1-28.38-36.31-5.83-21.21,.32-43.75-.83-65.71-.46-8.92-2.04-18.31,1.71-26.41,3.75-8.11,18.04-16.08,23.86-9.31,2.63,2.83,6.04,5.06,9.34,7.15,13.78,8.66,27.73,17.07,41.84,25.2,4.25,2.45,8.78,4.94,13.49,5.89,1.03,26.34,2.04,52.69,3.07,79.05,.18,4.63,.32,9.45-1.54,13.7Z"/><path class="e" d="M164.18,809.46c-.01-.5-.04-.99-.05-1.49"/><path class="m" d="M403.35,920.68c-23.39,9.31-51.19,1.49-70.23-14.97-19.04-16.46-30.39-40.25-37.13-64.51-.31-1.12-.62-2.27-.91-3.41-1.45-5.77-2.41-11.69-1.57-17.54,.99-7.01,6.23-15.12,12.79-17.77,.54,.05,1.07,.09,1.6,.15,9.04,.85,18.11,1.41,27.19,1.64,11.26,.3,22.55,.12,33.8-.53,15.92,23.48,32.51,47.87,48.46,71.34,3.33,4.91,6.74,10.03,7.65,15.89,2,13.09-9.34,24.81-21.64,29.71Z"/><path class="e" d="M368.89,803.74c-.11-.15-.22-.3-.31-.45"/><line class="e" x1="306.32" y1="802.47" x2="306.3" y2="802.48"/><path class="m" d="M228,340.7s-.04,.08-.05,.12c-.07,.15-.14,.3-.22,.45h0c-4.05,9-9.27,17.35-15.51,24.61-11.88,13.82-26.1,25.08-41.44,34.91h-.01c-11.23,7.21-23.06,13.66-35.03,19.76-6.08,3.13-12.2,6.14-18.27,9.15-1.96-10.86-9.93-20.33-19.45-26.24-10.88-6.75-23.63-9.69-33.12-13.95l-4.47-15.96c11.61,5.25,23.24,10.5,34.85,15.75,1.66-1.66,3.33-3.32,5.01-4.99,42.08-41.99,85.22-86.19,127.45-128.54,12.83,25.13,12.05,58.43,.27,84.95Z"/><path class="j" d="M158.89,539.84c-.01,14.94,.38,29.79,1.22,44.45-31.66-4.02-57.23-15.82-83.93-33.32,.24-8.01,.5-22.22,.74-29.24,.91-1.57,1.79-3.17,2.64-4.72,9.65-17.69,19.29-35.39,28.92-53.08,4.75-8.69,9.61-17.89,9.45-27.8,0-.11,0-.22-.01-.32v-.07c.01-.45,.03-.88,.01-1.33-.01-.51-.03-1.03-.07-1.53-.03-.45-.08-.91-.14-1.35,0-.05-.01-.12-.01-.18,0-.01,0-.04-.01-.05,6.24-3.07,12.52-6.19,18.75-9.39,11.6-5.94,23.08-12.21,33.99-19.19-7.69,44.48-11.6,91.24-11.55,137.14Z"/><path class="p" d="M117.92,435.73c-.04-1.46-.2-2.9-.46-4.32,.07-.03,.14-.07,.2-.11,.01,0,.03,0,.04-.01,.01,.01,.01,.04,.01,.05,0,.05,.01,.12,.01,.18,.05,.45,.11,.89,.14,1.35,.04,.5,.07,1.02,.07,1.53,.01,.45,0,.88-.01,1.33Z"/><path class="p" d="M170.76,402.5c-7.8,44.5-11.82,91.35-11.87,137.34-.05-45.9,3.86-92.66,11.55-137.14,.11-.07,.22-.14,.32-.2Z"/><path class="i" d="M164.13,813.07c-9.91,5.69-22.19,9.06-35.47,9.06-26.02,0-48.16-12.91-56.32-30.93-.31-4.6-.14-9.16,2.32-13.29,3.76-6.31,18.1-12.51,23.94-7.25,2.63,2.2,6.06,3.94,9.37,5.56,13.83,6.74,27.83,13.28,41.98,19.61,4.26,1.91,9.51,12.89,14.23,13.63,.22,4.21-.27-.62-.05,3.61Z"/><path class="i" d="M117.7,431.29s.01,.04,.01,.05c-.01-.01-.04-.03-.05-.04-18.62-12.83-37.94-24.66-57.82-35.45,1.68-2.13,3.37-4.25,5.05-6.36l-4.47-15.96c.08-.51,.18-1.04,.27-1.56,13.4,.99,26.96,5.02,39.59,12.32,.2,.11,.41,.22,.61,.34,15.38,9.01,27.18,21.63,34.84,35.91,.24,.45,.49,.91,.72,1.35-6.23,3.21-12.51,6.32-18.75,9.39Z"/><path class="i" d="M376.12,815.22c-9.98,7.58-22.43,12.07-35.94,12.07-16.38,0-31.2-6.62-41.96-17.31,2.19-2.98,4.98-5.44,8.08-6.69,.54,.05,1.07,.09,1.6,.15,20.26,1.92,40.67,2.29,60.99,1.11,2.4,3.53,4.81,7.09,7.23,10.67Z"/><path class="o" d="M370.73,243.6c-34.31,18.48-77.43,20.33-112.92,4.03-4.87-2.23-9.57-4.79-14.08-7.66-4.39,4.36-8.78,8.76-13.18,13.17,2.03,1.48,4.11,2.9,6.24,4.24,4.51,2.87,9.2,5.43,14.08,7.66,35.49,16.3,78.61,14.44,112.92-4.03,4.41-2.37,8.68-5.02,12.75-7.93,2.65-1.89,5.22-3.9,7.7-6.01-4.51-1.2-9-2.36-13.51-3.46Z"/><path class="j" d="M192.47,235.37c-28.87,16.07-58,32.36-82.51,54.52-5.04,4.56-9.88,9.41-14.44,14.51,4.95-31.74,12.87-65.01,27.6-93.57,3.17-6.13,6.62-12.26,11.57-17.07,13.37-12.97,39.35-16.11,57.98-15.86h.01c.14,.37,.28,.73,.43,1.1v.03c.57,18.77-1.22,37.57-.65,56.35Z"/><path class="i" d="M205.07,201.87h0c-4.71,37.41-31.81,83.54-75.3,121.98-22.12,19.56-45.67,34.66-68.45,44.79,4.94-23.98,17.69-45.79,34.19-64.24,4.56-5.1,9.41-9.95,14.44-14.51,24.51-22.16,53.64-38.45,82.51-54.52-.57-18.77,1.22-37.57,.65-56.35v-.03c-.15-.37-.3-.73-.43-1.1h-.01c-4.1-10.53-6.81-21.59-7.86-32.86,2.9,2.08,5.55,4.47,7.93,7.16,11.02,12.47,14.82,29.84,12.33,49.67Z"/><path class="i" d="M511.07,374.41c-29.26-.23-56.2,.19-85.42,1.42,.62-12.75,1.25-25.49,1.88-38.24-1.15-.14-2.29-.27-3.44-.41,19.71-9.92,51.18-14.09,88.26-11.67-1.3,16.26-1.72,32.59-1.29,48.89Z"/><path class="i" d="M667.31,369.13c-2.73,2.1-5.78,3.83-8.93,5.17-8.01,3.41-16.78,4.62-25.46,5.36-36.33,3.09-72.83-1.48-109.03-6.02-2.34-14.85-3.06-30.93-2.45-47.39,18.43,1.69,38.09,4.95,58.24,9.89,33.46,8.19,63.55,19.8,87.63,32.99Z"/><path class="i" d="M363.05,742.84c-4.99,23.63-14.9,44.6-27.96,61.42-.19,.27-.41,.53-.61,.8-5.2,6.61-10.88,12.56-16.95,17.76-7.04,6.04-14.58,11.07-22.45,14.97-1.45-5.77-2.41-11.69-1.57-17.54,.99-7.01,6.23-15.12,12.79-17.77-5.2-.57-10.53-1.6-14.28-5.13-5.73-5.39-5.6-14.36-4.91-22.18,4.56-52.25,15.63-103.68,20.68-151.09,4.62-4.11,9.49-7.93,14.58-11.41,34.49,24.58,52.1,76.2,40.69,130.18Z"/><path class="m" d="M242.09,655.84c-10.98,44.08-27.67,86.73-49.53,126.55-2.18,3.98-4.7,8.13-7.75,11.57-3.53,4.03-7.8,7.09-13.06,7.8-2.1,.28-4.17,.15-6.21-.27-4.71-.95-9.24-3.44-13.49-5.89-14.1-8.13-28.06-16.54-41.84-25.2-3.3-2.08-6.71-4.32-9.34-7.15-1.37-1.46-2.5-3.1-3.32-4.94-.79-1.8-1.19-3.65-1.31-5.54-.42-6.39,2.46-13.13,5.32-19.11,22.1-46.36,44.18-92.7,60.79-142.11,.03-.07,.05-.15,.08-.22,.8-.03,1.61-.05,2.42-.07,5.05-.08,10.12,.22,15.15,.88,15.55,2.04,30.67,7.59,43.8,16.19,.56,.37,1.11,.73,1.65,1.11,8.19,5.59,15.93,12.94,18.37,22.55,1.99,7.8,.23,16.03-1.72,23.84Z"/><path class="i" d="M162.57,690.97c-16.57,29.15-40.58,50.54-66.34,61.8-.42-6.39,2.46-13.13,5.32-19.11,22.1-46.36,44.18-92.7,60.79-142.11,.83-.12,1.66-.22,2.5-.28,4.34-.38,8.82-.14,13.13,.41,.66,.08,1.31,.18,1.98,.27,.01,.07,.03,.14,.04,.2,6.56,30.24,1.19,66.05-17.42,98.82Z"/><circle class="o" cx="401.75" cy="368.2" r="7.85"/><circle class="o" cx="400.52" cy="393.54" r="10.71"/><path class="m" d="M387.67,122.87c-.5,.23-1.04,.45-1.57,.63,2.71-15.91-3.49-33.1-15.84-43.53-1.92-1.64-3.99-3.11-5.75-4.86-.47-.42-.88-.87-1.29-1.32-1.49-1.74-3.48-4.77-3.11-7.17,.05-.4,.17-.72,.33-.96,.65-1.28,2.12-1.53,3.82-1.89,3.8-.76,7.78-.15,11.37,1.25,8.6,3.42,15.14,11.12,18.98,19.34,7.47,15.99,4.36,33.23-6.94,38.51Z"/></g></svg>