<?xml version="1.0" encoding="UTF-8"?><svg xmlns="http://www.w3.org/2000/svg" width="553.39" height="540" viewBox="0 0 553.39 540"><defs><style>.e{fill:#48c7df;}.f{fill:#1b4d9c;}.f,.g{isolation:isolate;}.g{opacity:.2;}</style></defs><g id="a"><path class="e" d="M524.02,359.59s-.02,.03-.02,.03c-1.06,3.13-2.2,6.23-3.43,9.3h0c-17.65,44.48-50.19,81.63-90.89,107.35-11.11-23.46-25.68-45.28-43.06-64.56-4.49-4.99-9.17-9.8-14.03-14.43-7.23-6.9-17.64-13.79-26.46-9.07-6.43,3.44-8.63,11.93-7.35,19.11,1.28,7.19,5.23,13.57,8.39,20.16,.92,1.91,1.77,3.85,2.55,5.81,9.68,24.1,9.52,52.03-.52,75.98-23.25,5.09-47.49,6.91-71.92,4.99-20.96-28.89-54.44-44.44-86.01-62.19-7.43-4.19-14.76-8.49-21.8-13.12-34.63-22.8-63.14-54.78-81.92-91.76v-.02c-5.48-37.25-1.06-76.43,11.2-112.69,26.01,15.26,42.11,43.93,54.67,71.79,13.58,30.13,25.81,62.4,50.48,84.4,16.16,14.39,43.62,22.2,58.04,6.05,9.32-10.43,8.68-26.89,2.56-39.49-6.11-12.58-16.61-22.36-26.33-32.44-46.19-47.92-78.56-108.97-92.54-174.03,22.05-26.42,49.5-48.48,80.65-62.36-18.63,69.3-.37,147.98,48.17,201.08,7.88,8.61,18.14,17.17,29.71,15.73,12.19-1.51,20.51-14.16,21.37-26.41,.87-12.24-3.86-24.12-8.5-35.48-8.35-20.45-16.71-40.89-25.06-61.32-4.43-10.85-8.49-24.46-.77-33.3,7.19-8.22,21.18-6.69,29.58,.29,8.4,6.99,12.58,17.69,16.39,27.93,22.15,59.41,43.13,119.26,62.95,179.49,3.49,10.62,8.55,22.41,15.62,31.06,6.58,8.08,14.9,13.44,25.3,12.6,16.04-1.31,26.57-17.9,29.76-33.67,3.59-17.78,1.17-35.76-4.73-52.97-5.37-15.68-13.62-30.73-22.85-44.43-19.35-28.74-43.46-54.56-58.39-85.84-14.77-30.96-18.84-70.29,1.21-98,21.87,7.82,42.44,18.85,60.89,32.68,5.47,4.09,10.75,8.43,15.83,13-1.98,1.46-3.82,3.07-5.5,4.82-13.11,13.52-17.58,35.11-13.84,54.05,4.51,22.81,18.54,42.49,33.31,60.45,1.24,1.51,2.49,3.01,3.74,4.51,13.68,16.4,27.92,32.58,37.01,51.85,7.75,16.41,11.16,35.87,6.54,53.07Z"/><g><path class="f" d="M277.28,514.26c-11.65-.92-23.35-2.69-35.01-5.37-52.85-12.11-101.7-44.36-129.75-90.77-.17-.28-.33-.55-.49-.83-12.88-21.6-20.85-45.42-24.48-70.1,18.78,36.98,47.29,68.96,81.92,91.76,7.04,4.63,14.37,8.93,21.8,13.12,31.57,17.75,65.05,33.3,86.01,62.19Z"/><path class="f" d="M349.2,509.27c10.86-25.91,10.15-56.47-2.04-81.79-3.16-6.59-7.11-12.97-8.39-20.16-1.28-7.18,.93-15.67,7.35-19.11,8.82-4.72,19.23,2.17,26.46,9.07,23.65,22.54,43.1,49.47,57.08,78.99-24.39,15.41-51.69,26.71-80.47,33Z"/><path class="f" d="M470.8,366.4c-3.19,15.77-13.72,32.36-29.76,33.67-10.4,.84-18.72-4.52-25.3-12.6-7.07-8.65-12.13-20.44-15.62-31.06-19.82-60.23-40.8-120.08-62.95-179.49-3.81-10.24-7.99-20.94-16.39-27.93-8.4-6.98-22.39-8.51-29.58-.29-7.72,8.84-3.66,22.45,.77,33.3,8.35,20.43,16.71,40.87,25.06,61.32,4.64,11.36,9.37,23.24,8.5,35.48-.86,12.25-9.18,24.9-21.37,26.41-11.57,1.44-21.83-7.12-29.71-15.73-48.54-53.1-66.8-131.78-48.17-201.08,13.32-5.96,27.32-10.4,41.88-13.05,1.51-.27,3.02-.53,4.53-.78,38.94-6.25,77.86-2.08,113.35,10.59-20.05,27.71-15.98,67.04-1.21,98,14.93,31.28,39.04,57.1,58.39,85.84,9.23,13.7,17.48,28.75,22.85,44.43,5.9,17.21,8.32,35.19,4.73,52.97Z"/><path class="f" d="M524.01,359.59c4.63-17.2,1.21-36.67-6.54-53.07-9.92-21.03-25.98-38.39-40.75-56.35-14.77-17.96-28.79-37.64-33.31-60.45-4.22-21.39,2.02-46.15,19.34-58.87,33.37,30.04,57.87,70.12,67.61,116.94,8.32,40.02,5.27,77.88-6.35,111.81Z"/><path class="f" d="M261.94,396.72c-14.42,16.15-41.88,8.34-58.04-6.05-24.67-22-36.9-54.27-50.48-84.4-12.56-27.86-28.66-56.53-54.67-71.79,3.7-10.98,8.13-21.7,13.23-32.01,9.02-18.27,20.35-35.78,33.65-51.71,13.98,65.06,46.35,126.11,92.54,174.03,9.72,10.08,20.22,19.86,26.33,32.44,6.12,12.6,6.76,29.06-2.56,39.49Z"/></g><path class="g" d="M480.47,254.67c-1.53,16.51-5.01,32.39-10.18,47.5l-.02,.03c-1.04,3.12-2.21,6.21-3.42,9.3-.26,.64-.52,1.29-.78,1.93-8.78,21.48-21.04,41.23-36.03,58.78-4.53,5.3-9.3,10.39-14.3,15.26-9.01,8.81-18.76,16.91-29.12,24.24-3.49,2.48-7.05,4.86-10.68,7.15-8.41,5.31-17.17,10.13-26.22,14.43-17.17,8.16-35.39,14.43-54.24,18.55-23.27,5.09-47.5,6.92-71.94,4.99-10.72-.84-21.51-2.42-32.27-4.76-.91-.2-1.82-.4-2.73-.61-27.36-6.27-53.64-17.94-76.51-34.17-12.88-21.6-20.85-45.42-24.48-70.1v-.02c-5.48-37.25-1.06-76.43,11.2-112.69,3.7-10.98,8.13-21.7,13.23-32.01,9.02-18.27,20.35-35.78,33.65-51.71,22.05-26.42,49.5-48.48,80.65-62.36,13.32-5.96,27.32-10.4,41.88-13.05,1.51-.27,3.02-.53,4.53-.78,38.94-6.25,77.86-2.08,113.35,10.59,21.87,7.82,42.44,18.85,60.89,32.68,3.71,5.74,7.16,11.69,10.33,17.82,8.74,16.9,15.35,35.22,19.4,54.7,4.61,22.21,5.72,43.74,3.81,64.31Z"/></g><g id="b"/><g id="c"/><g id="d"/></svg>