<?xml version="1.0" encoding="UTF-8"?><svg xmlns="http://www.w3.org/2000/svg" width="553.39" height="540" xmlns:xlink="http://www.w3.org/1999/xlink" viewBox="0 0 553.39 540"><defs><style>.f{fill:url(#b);}.g{fill:none;}.h{fill:#ffe9e7;}.i{fill:#c56949;}.j{fill:#1b4d9c;}</style><linearGradient id="b" x1="1175.43" y1="963.54" x2="1533.56" y2="963.54" gradientTransform="translate(183.2 -1411.27) rotate(52.18)" gradientUnits="userSpaceOnUse"><stop offset=".3" stop-color="#ffe4d3"/><stop offset="1" stop-color="#ffa45f"/></linearGradient></defs><g id="a"><path class="f" d="M237.59,431.04c-5.5,1.78-10.6,6.16-11.33,11.89-.67,5.28,2.53,10.44,6.8,13.61,2.63,1.95,7.87,5.27,12.7,7.89-18.39-2.42-36.77-7.3-54.71-14.8-2.09-.87-4.15-1.78-6.19-2.71-12.73-9.55-20.4-25.57-19.73-41.49,.29-6.78,2.33-14.02,7.77-18.08,10.22-7.66,24.3-.06,35.82,5.43,20.83,9.91,45.12,12.34,67.5,6.77,5.53-1.38,12.17-5.11,11.13-10.71-.68-3.68-4.46-5.83-7.89-7.31-2.09-.9-4.2-1.74-6.33-2.55-.84-.32-1.69-.63-2.54-.94-1.24-.45-2.49-.89-3.73-1.33-.48-.17-.96-.34-1.44-.5-7.54-2.62-15.16-5.08-22.37-8.29-.33-.14-.65-.28-.96-.43-.37-.16-.73-.33-1.08-.5-.43-.2-.85-.4-1.27-.61-.4-.19-.8-.4-1.2-.59-.4-.2-.79-.4-1.18-.61-.11-.06-.21-.11-.32-.17-.36-.19-.71-.38-1.07-.58-.39-.21-.77-.43-1.15-.65-.31-.18-.62-.35-.92-.54-.34-.19-.67-.39-1-.6-.04-.03-.09-.05-.13-.08-.41-.25-.82-.5-1.21-.76-.12-.07-.23-.14-.34-.22-.35-.23-.7-.46-1.05-.7-.06-.04-.12-.08-.17-.12-.2-.13-.41-.27-.6-.41-.48-.34-.95-.68-1.42-1.04-.44-.34-.88-.69-1.32-1.04-.47-.38-.93-.78-1.39-1.18-.41-.37-.81-.74-1.22-1.12-.02-.02-.04-.04-.06-.06-.41-.39-.82-.79-1.21-1.2-.02-.02-.03-.03-.05-.05-.61-.63-1.21-1.27-1.78-1.94-.2-.23-.4-.47-.6-.71-.47-.56-.93-1.14-1.37-1.72-.45-.58-.88-1.18-1.29-1.78-.13-.18-.25-.35-.37-.54-.12-.18-.24-.36-.36-.55-.48-.73-.94-1.47-1.36-2.22-.11-.19-.21-.37-.32-.57-.11-.19-.21-.37-.31-.56-.1-.19-.2-.38-.3-.57-.24-.46-.48-.93-.7-1.4-.15-.3-.29-.61-.42-.91-.18-.4-.35-.8-.52-1.21-.08-.19-.15-.37-.22-.56-.08-.2-.16-.4-.23-.6-.07-.2-.14-.4-.22-.59-.08-.19-.14-.4-.21-.6-.07-.2-.13-.4-.2-.6-.07-.2-.13-.4-.19-.6-.06-.2-.12-.4-.18-.6-.11-.4-.22-.81-.32-1.21-.05-.2-.1-.4-.15-.6-.05-.2-.1-.4-.13-.61-.04-.19-.08-.37-.11-.56,0-.02-.01-.04-.01-.06-.05-.25-.1-.5-.13-.75-.05-.27-.09-.54-.13-.81-.16-1.11-.26-2.22-.3-3.34,0-.15,0-.3-.01-.45-.01-.35,0-.7,0-1.06,0-.27,0-.54,.03-.8,0-.04,0-.08,.01-.12,0-.34,.04-.69,.07-1.03,.03-.35,.07-.71,.12-1.07,.04-.36,.1-.71,.16-1.06,.05-.33,.12-.65,.19-.97,.02-.12,.05-.24,.08-.36,.02-.07,.03-.15,.05-.23,.12-.52,.26-1.04,.42-1.56,.02-.06,.05-.12,.06-.19,.09-.29,.19-.58,.29-.87,0,0,0-.02,0-.02,.13-.34,.26-.68,.39-1.01,.12-.3,.25-.61,.38-.91,.01-.02,.02-.03,.02-.05,.14-.29,.28-.58,.43-.88,.01-.02,.02-.05,.04-.07,.12-.24,.24-.47,.38-.71,.06-.1,.11-.2,.17-.29,.15-.27,.31-.54,.47-.8,.31-.5,.64-.99,.98-1.46,.01-.02,.03-.03,.04-.05,.18-.25,.36-.5,.56-.74,.4-.52,.82-1.02,1.25-1.49,.22-.24,.43-.48,.67-.71,.21-.22,.42-.43,.64-.64,.02-.02,.05-.04,.07-.07,.22-.21,.45-.42,.68-.62,.24-.22,.49-.42,.74-.63,.24-.2,.49-.4,.74-.6,8.89-6.9,21.91-8.75,33.62-8.56,15.46,.24,30.9,2.72,45.67,7.3,8.25,2.57,16.42,5.81,25.05,6.47,8.62,.66,18.06-1.79,23.31-8.66,7.63-9.97,3.2-25.25-6-33.8-9.2-8.55-21.76-12.22-33.64-16.27-11.89-4.05-24.25-9.26-31.43-19.57-7.17-10.31-6.3-27.08,4.78-32.99,2.31-1.23,5.05-2.04,6.53-4.2,3.18-4.64-1.9-10.55-6.86-13.21-28.55-15.37-68.61-5.09-91.66-27.89-5.37-5.31-9.33-12.36-9.68-19.89-.35-7.55,3.41-15.46,10.14-18.87,7.15-3.62,15.68-1.73,23.69-1.48,8.01,.26,17.67-2.62,19.57-10.41,1.34-5.49-1.9-11.08-5.87-15.09-3.97-4.02-8.81-7.22-12.02-11.87-7.7-11.15-1.37-28.76,11.14-33.25,28.7-6.47,58.92-7.07,88.81-1.04-7.19,1.7-15.27,4.57-21.07,8.22-6.9,4.34-12.23,12.16-11.2,20.24,1.31,10.23,11.45,16.45,19.36,23.09,7.9,6.64,14.39,18.95,7.47,26.61-5.76,6.38-16,4.17-24.39,2.3-8.39-1.88-19.68-1.35-22.44,6.8-1.5,4.44,.56,9.47,3.94,12.71,3.38,3.24,7.88,5.02,12.31,6.55,14.09,4.84,28.8,7.85,43.66,8.95,9.23,.68,18.57,.63,27.6,2.67,9.02,2.04,17.94,6.5,23.03,14.23,5.09,7.73,5.21,19.11-1.43,25.55-9.18,8.9-26.46,5.49-34.3,15.59-5.62,7.25-3.07,18.36,3.15,25.11,6.21,6.75,15.11,10.23,23.64,13.61,8.53,3.38,17.38,7.13,23.22,14.21,.34,.41,.67,.83,.98,1.26,.09,.12,.17,.24,.26,.36,.12,.18,.25,.35,.36,.53,.04,.05,.07,.1,.1,.15,.17,.26,.33,.52,.49,.78,0,0,.01,.02,.02,.03,.15,.24,.29,.48,.43,.72,.09,.15,.18,.31,.26,.47,.04,.06,.06,.11,.09,.16,.1,.19,.2,.38,.29,.57,.14,.26,.26,.53,.38,.79,.12,.28,.25,.55,.37,.83,0,.01,.01,.03,.02,.04,.09,.23,.19,.45,.28,.68,.05,.13,.1,.25,.14,.38,.1,.26,.19,.52,.28,.78,.11,.31,.21,.63,.3,.95,.1,.32,.19,.64,.28,.96,.09,.33,.17,.67,.25,1,.07,.31,.14,.63,.2,.95,.06,.32,.12,.66,.18,.99,0,.03,.01,.07,.02,.11,.05,.29,.09,.59,.13,.88,.09,.66,.16,1.33,.21,2.01,.02,.33,.04,.68,.05,1.01,.06,1.27,.04,2.54-.04,3.82-.03,.5-.08,1.02-.14,1.53-.03,.25-.06,.51-.09,.77-.04,.34-.09,.68-.14,1.02-.1,.68-.22,1.36-.37,2.03-.35,1.68-.82,3.35-1.4,4.98h0c-.1,.28-.2,.55-.3,.83-.04,.09-.07,.18-.11,.27-.13,.37-.28,.73-.44,1.08s-.31,.72-.47,1.07c-.16,.34-.31,.68-.48,1.01l-.03,.07c-.04,.08-.08,.16-.12,.24-.13,.26-.26,.52-.4,.78-.18,.35-.36,.69-.56,1.02-.14,.25-.29,.51-.44,.76-.25,.42-.51,.83-.77,1.24h0c-.31,.48-.62,.95-.96,1.41-.33,.46-.67,.91-1.02,1.36-.17,.22-.35,.44-.53,.66-.54,.66-1.1,1.28-1.68,1.89-11.43,11.98-28.84,16.56-45.39,16.48-1.42,0-2.86-.04-4.3-.08-.36,0-.73-.02-1.1-.03-.37-.01-.73-.02-1.1-.03-1.48-.04-2.97-.06-4.44-.04-.35,0-.7,0-1.05,.02-1.46,.04-2.92,.13-4.36,.3-.32,.03-.64,.07-.96,.13-1.46,.2-2.91,.5-4.34,.91-.23,.06-.45,.13-.67,.21-.53,.17-1.05,.36-1.56,.58-.21,.09-.42,.17-.62,.27-.28,.12-.55,.26-.83,.4-.06,.03-.13,.06-.19,.1-.15,.08-.3,.16-.44,.23-.27,.15-.54,.3-.8,.46-.44,.26-.87,.54-1.29,.83-2.12,1.47-3.93,3.32-5.2,5.44h0c-.15,.25-.29,.5-.41,.76-.07,.13-.13,.26-.19,.39-.07,.13-.13,.26-.18,.39-.12,.26-.23,.53-.33,.8-.05,.13-.1,.26-.14,.41l-.13,.41c-.05,.13-.09,.28-.12,.42-.04,.14-.07,.28-.1,.42-.19,.85-.28,1.72-.28,2.61,.04,8.13,7.94,13.95,15.53,16.88,7.59,2.93,16.13,4.68,21.73,10.58,.42,.45,.82,.92,1.2,1.4,.12,.15,.23,.3,.34,.46,.11,.14,.21,.29,.31,.43,.03,.04,.06,.09,.09,.13,.09,.13,.18,.27,.26,.41,.32,.49,.61,1,.87,1.53,.09,.17,.17,.35,.26,.52,.09,.18,.17,.35,.25,.53,.24,.55,.46,1.11,.64,1.68,.29,.85,.52,1.73,.7,2.62,.18,.89,.3,1.8,.37,2.71,.04,.54,.07,1.08,.07,1.63,0,.4,0,.8-.02,1.2,0,.13,0,.26-.02,.39-.04,.8-.11,1.6-.22,2.41-.03,.18-.05,.35-.08,.53-.04,.29-.09,.56-.15,.85-.05,.29-.11,.56-.17,.85-.04,.19-.08,.37-.13,.56-.09,.37-.18,.73-.28,1.1,0,0,0,0,0,0-.1,.37-.21,.73-.33,1.09-.05,.18-.11,.36-.18,.54-.09,.26-.18,.52-.27,.78-.1,.25-.19,.51-.29,.77-.09,.21-.18,.42-.27,.63-.07,.16-.14,.33-.21,.49-.08,.18-.16,.35-.24,.52-.08,.17-.17,.35-.25,.52s-.17,.34-.26,.51c-.18,.34-.36,.67-.55,1.01-.3,.53-.62,1.06-.96,1.57-.09,.14-.18,.28-.28,.42-.2,.3-.41,.59-.62,.88-.11,.15-.22,.31-.34,.46-.23,.3-.47,.6-.71,.89-.12,.14-.24,.29-.37,.43-.12,.14-.24,.28-.37,.42-.12,.14-.25,.28-.38,.41-8.66,9.22-21.47,13.15-33.86,15.69-16.24,3.32-32.85,4.88-49.42,4.64-5.78-.08-11.7-.37-17.2,1.41Z"/><path class="g" d="M92.49,366.01c-36.64-3.75-59.44-14.93-64.85-32.09-5.27-16.74,6.43-38.46,33.09-61.95,3.08,33.47,14.04,65.72,31.76,94.04Z"/><path class="g" d="M71.78,182.37c-21.06-30.47-27.42-55.23-17.85-70.49,9.61-15.31,35.35-20.38,72.61-14.37-20.96,19.84-38.23,44.28-50.08,72.62-1.7,4.06-3.25,8.14-4.67,12.24Z"/><path class="g" d="M224.03,355.98c12.38-2.5,24.98-5.39,37.71-8.67-11.53-6.46-23.09-13.31-34.44-20.43-5.11-3.21-10.18-6.46-15.17-9.76-5.26,12.93,1.19,28.63,11.9,38.87Z"/><path class="g" d="M389.33,307.46c-.19,.34-.39,.68-.59,1.01,.06-.08,.1-.16,.16-.25,.15-.25,.29-.51,.44-.76Z"/><path class="g" d="M266.75,350.08c-1.65-.91-3.3-1.82-4.95-2.75h0c1.65,.93,3.31,1.84,4.96,2.75Z"/><path class="g" d="M391.94,301.91c.11-.28,.2-.55,.3-.82-.12,.35-.25,.68-.38,1.02,.02-.07,.05-.13,.08-.2Z"/><path class="g" d="M268.79,345.46c-.08,.02-.17,.04-.25,.07l-1.9,.51,2.15-.57Z"/><path class="g" d="M390.42,305.41c-.08,.17-.17,.33-.26,.5,.04-.09,.09-.17,.14-.26,.04-.08,.08-.16,.12-.24Z"/><path class="i" d="M108.83,373.06c-4.22-.17-8.29-.42-12.24-.75,21.32,31.56,51.28,57.77,88.26,74.61-12.73-9.55-20.4-25.57-19.73-41.49,.29-6.78,2.33-14.02,7.77-18.08,10.22-7.66,24.3-.06,35.82,5.43,20.83,9.91,45.12,12.34,67.5,6.77,5.53-1.38,12.17-5.11,11.13-10.71-.68-3.68-4.46-5.83-7.89-7.31-16.47-7.1-34.7-10.64-49.48-20.75-44.63,9.33-86.63,13.65-121.15,12.28h0Z"/><path class="i" d="M324.71,311.59c-8.62-.66-16.79-3.9-25.05-6.47-14.77-4.59-30.21-7.06-45.67-7.3-14.39-.23-30.73,2.61-39,14.12h0c-56.24-37.14-104.65-79.44-134.43-117.71l-4.66,3.62c30.23,38.85,79.3,81.72,136.22,119.26h0c-5.26,12.94,1.19,28.63,11.91,38.87-42.38,8.56-82.14,12.49-114.97,11.19-5.8-.23-11.33-.62-16.57-1.15-17.71-28.32-28.68-60.57-31.76-94.04-.22-2.44-.39-4.89-.53-7.33-1.43-24.91,1.51-50.38,9.27-75.3,1.97,2.75,4.03,5.52,6.22,8.34l.16,.2,4.66-3.62-.15-.2c-3.09-3.98-5.94-7.88-8.57-11.69,1.43-4.1,2.98-8.18,4.67-12.24,11.86-28.34,29.12-52.78,50.08-72.62,1.81-1.71,3.65-3.4,5.52-5.05,27.07-23.88,59.73-40.44,94.65-48.31-12.51,4.49-18.84,22.1-11.14,33.25,3.21,4.64,8.05,7.85,12.02,11.87,3.96,4.01,7.21,9.6,5.87,15.09-1.91,7.78-11.57,10.67-19.57,10.41-8.01-.26-16.54-2.15-23.69,1.48-6.73,3.41-10.49,11.33-10.14,18.87,.35,7.54,4.32,14.59,9.68,19.89,23.06,22.79,63.12,12.52,91.66,27.89,4.95,2.66,10.04,8.57,6.86,13.21-1.48,2.16-4.22,2.97-6.53,4.2-11.08,5.91-11.96,22.68-4.78,32.99,7.18,10.31,19.54,15.52,31.43,19.57,11.89,4.05,24.44,7.72,33.64,16.27,9.2,8.55,13.63,23.83,6,33.8-5.25,6.86-14.7,9.32-23.31,8.66Z"/><path class="g" d="M261.74,347.35l6.35,3.48c-.45-.24-.89-.5-1.34-.74-1.65-.91-3.3-1.82-4.96-2.75h-.05Z"/><path class="g" d="M261.79,347.34h0l4.84-1.3,1.9-.51c-2.27,.61-4.53,1.2-6.79,1.78l.05,.03Z"/><path class="g" d="M269.22,351.45h0c-.25-.14-.5-.28-.76-.41l.76,.41Z"/><path class="g" d="M525.77,177.18c-5.67-17.99-24.97-26.63-66-29.19,16.39,29.23,25.84,62.15,27.23,95.99,13.45-11.11,23.7-21.94,30.53-32.27,8.59-12.99,11.36-24.61,8.24-34.53Z"/><path class="g" d="M343.74,379.36c-.27-.53-.56-1.03-.87-1.53-.08-.14-.17-.28-.26-.41-.03-.05-.06-.1-.09-.13-.1-.15-.2-.29-.31-.43-.11-.16-.23-.31-.34-.46-.37-.48-.77-.95-1.2-1.4-5.6-5.9-14.13-7.65-21.73-10.58-7.59-2.93-15.49-8.75-15.53-16.88,0-.89,.09-1.77,.28-2.61,.03-.14,.07-.28,.1-.42,.04-.14,.07-.28,.12-.42l.13-.41c.04-.14,.09-.27,.14-.41,.1-.27,.21-.54,.33-.8,.05-.13,.12-.26,.18-.39,.06-.13,.13-.26,.19-.39,.14-.26,.28-.51,.43-.76h-.01c-.52,.17-1.04,.34-1.56,.5-2.53,.8-5.06,1.58-7.6,2.35-.78,.24-1.56,.47-2.34,.71-1.8,.54-3.6,1.07-5.39,1.6-.86,.25-1.72,.5-2.57,.75-1.88,.55-3.75,1.08-5.62,1.61l-2.04,.58c-.23,.06-.45,.13-.68,.19,22.64,12.1,45.18,22.62,66.75,31.21-.08-.18-.16-.36-.24-.53-.09-.18-.17-.35-.26-.52Z"/><polygon class="j" points="108.83 373.06 108.95 370.11 108.83 373.06 108.83 373.06"/><path class="g" d="M383.94,314.76c.58-.61,1.14-1.24,1.68-1.89,.18-.22,.35-.44,.53-.66,.35-.44,.68-.9,1.02-1.36s.65-.93,.96-1.4c-17.12,7.72-35.15,14.99-53.87,21.7,1.44,.04,2.87,.08,4.3,.08,16.55,.08,33.96-4.5,45.39-16.48Z"/><path class="g" d="M424.37,403.86c37,5.9,62.3,.9,71.95-14.48,9.79-15.6,2.97-41.03-19.15-72.36-1.92,6.04-4.13,12.05-6.62,18.01-11.11,26.56-26.98,49.69-46.18,68.82Z"/><path class="j" d="M394.38,285.93c-.05-.67-.12-1.34-.21-2.01,.09,.66,.16,1.34,.21,2.01Z"/><path class="j" d="M394.16,293.06c.27-2.03,.36-4.08,.27-6.11,.09,2.02-.01,4.07-.27,6.11Z"/><path class="j" d="M393.65,296.1c.15-.67,.27-1.35,.37-2.03-.11,.68-.23,1.35-.37,2.03Z"/><path class="j" d="M392.24,301.08c.58-1.63,1.05-3.29,1.4-4.98-.36,1.68-.82,3.34-1.4,4.98Z"/><path class="i" d="M479.44,257.39c-8.27,6.16-17.41,12.34-27.24,18.4-1.4,.87-2.82,1.73-4.25,2.59-18.15,10.92-38.26,21.35-59.83,31.07h0c-.31,.48-.62,.95-.96,1.41-.33,.46-.67,.91-1.02,1.36-.17,.22-.35,.44-.53,.66-.54,.66-1.1,1.28-1.68,1.89-11.43,11.98-28.84,16.56-45.39,16.48-1.42,0-2.86-.04-4.3-.08-9.48,3.4-19.14,6.67-28.95,9.77-.15,.25-.29,.5-.43,.76-.07,.13-.13,.26-.19,.39-.06,.13-.13,.26-.18,.39-.12,.26-.23,.53-.33,.8-.05,.13-.1,.27-.14,.41l-.13,.41c-.04,.14-.08,.28-.12,.42-.03,.14-.07,.28-.1,.42-.19,.85-.28,1.72-.28,2.61,.04,8.13,7.94,13.95,15.53,16.88,7.59,2.93,16.13,4.68,21.73,10.58,.42,.45,.82,.92,1.2,1.4,.12,.15,.23,.3,.34,.46,.11,.14,.21,.29,.31,.43,.03,.04,.06,.09,.09,.13,.09,.13,.18,.27,.26,.41,.32,.49,.61,1,.87,1.53,.09,.17,.17,.35,.26,.52,.09,.18,.17,.35,.25,.53,23.22,9.26,45.31,16.27,65.17,20.61,5.18,1.13,10.17,2.07,14.97,2.84,19.2-19.14,35.07-42.27,46.18-68.82,2.49-5.96,4.7-11.97,6.62-18.01,.76-2.37,1.46-4.76,2.13-7.14,5.42-19.38,7.97-39.03,7.86-58.44-2.48,1.98-5.05,3.96-7.72,5.95Z"/><path class="j" d="M388.12,309.45c-.31,.47-.63,.94-.96,1.4,.33-.45,.65-.92,.96-1.4Z"/><path class="j" d="M342.87,377.83c.32,.49,.61,1,.87,1.53-.26-.52-.55-1.04-.87-1.53Z"/><path class="j" d="M344.23,380.42s0,0,0,0c-.08-.18-.16-.36-.25-.53,.08,.17,.16,.35,.24,.53Z"/><path class="i" d="M408.15,406.79c-12.32-2.69-25.49-6.4-39.23-11.02-7.5-2.52-15.16-5.3-22.96-8.34,.6,7.72-2.46,16.11-7.88,21.87-8.66,9.22-21.47,13.15-33.86,15.69-16.24,3.32-32.85,4.88-49.42,4.64-5.78-.08-11.7-.37-17.2,1.41-5.5,1.78-10.6,6.16-11.33,11.89-.67,5.28,2.53,10.44,6.8,13.61,2.63,1.95,7.87,5.27,12.7,7.89,63.51,8.35,127.17-12.56,173.32-55.48h0c-3.56-.63-7.2-1.34-10.94-2.16Z"/><path class="h" d="M96.59,372.31c-18.16-1.52-33.43-4.76-45.47-9.67-10.53-4.29-18.4-9.79-23.53-16.4-2.52-3.25-4.38-6.77-5.57-10.56-3.52-11.18-.91-23.87,7.75-37.7,6.71-10.71,16.93-21.9,30.43-33.35,.14,2.45,.31,4.89,.53,7.33-26.66,23.49-38.36,45.21-33.09,61.95,5.4,17.16,28.21,28.34,64.85,32.09,1.33,2.13,2.7,4.23,4.1,6.3Z"/><path class="h" d="M108.83,373.06h0l.12-2.95,.12-2.95c-5.8-.23-11.33-.61-16.57-1.15,1.33,2.12,2.7,4.22,4.1,6.3,3.94,.33,8.02,.58,12.24,.75h0Z"/><path class="h" d="M268.19,350.88s-.07-.04-.11-.06l-6.35-3.48h.05l-.05-.04h0c-12.72,3.28-25.32,6.17-37.71,8.67,1.68,1.61,3.47,3.08,5.34,4.39,.2,.14,.4,.28,.61,.41,12.9-2.7,26.02-5.81,39.25-9.33l-.76-.41c-.09-.05-.18-.1-.28-.15Z"/><path class="h" d="M224.03,355.98c-42.38,8.56-82.14,12.49-114.97,11.19l-.12,2.95-.12,2.95c34.52,1.37,76.52-2.95,121.15-12.28-.2-.14-.41-.27-.61-.41-1.86-1.31-3.65-2.78-5.34-4.39Z"/><path class="h" d="M69.47,189.34c-10.8-15.05-18.31-28.96-22.35-41.46-5.13-15.88-4.52-29.05,1.81-39.13,11.31-18.03,39.26-23.8,80.83-16.69,.76,.13,1.53,.27,2.3,.41-1.87,1.65-3.71,3.33-5.52,5.05-37.26-6.01-63-.93-72.61,14.37-9.57,15.27-3.21,40.02,17.85,70.49-.81,2.32-1.58,4.64-2.31,6.97Z"/><path class="h" d="M75.85,197.88l4.66-3.62-.15-.2c-3.09-3.98-5.94-7.88-8.58-11.69-.81,2.32-1.58,4.64-2.31,6.97,1.97,2.74,4.04,5.52,6.22,8.34l.15,.2Z"/><path class="h" d="M501.32,392.51c6.42-10.23,6.95-23.62,1.58-39.8-4.27-12.9-12.2-27.28-23.6-42.82-.67,2.38-1.37,4.76-2.13,7.14,22.12,31.33,28.94,56.76,19.15,72.36-9.65,15.38-34.95,20.38-71.95,14.48-1.73,1.73-3.5,3.42-5.29,5.09h0c18.35,3.25,34.25,4.03,47.36,2.27,16.76-2.24,28.5-8.53,34.88-18.71Z"/><polygon class="h" points="419.09 408.95 419.09 408.95 419.09 408.95 419.09 408.95 419.09 408.95"/><path class="h" d="M525.77,177.18c3.12,9.92,.34,21.53-8.24,34.53-6.83,10.34-17.08,21.16-30.53,32.27,.1,2.49,.16,4.97,.17,7.46,35.2-28.11,50.87-54.91,44.23-76.03-6.71-21.31-28.59-31.12-75.19-33.53,1.22,2.02,2.41,4.05,3.56,6.11,41.03,2.56,60.33,11.2,66,29.19Z"/><path class="h" d="M344.88,382.1c-.19-.58-.41-1.13-.65-1.68-21.57-8.6-44.11-19.11-66.75-31.21,.23-.06,.45-.13,.68-.19l2.04-.58c1.87-.53,3.75-1.06,5.62-1.61,.86-.25,1.71-.49,2.57-.75,1.79-.53,3.59-1.06,5.39-1.6,.78-.23,1.56-.47,2.34-.71,2.53-.77,5.07-1.55,7.6-2.35,.52-.16,1.05-.33,1.56-.5h.01c1.26-2.12,3.09-3.97,5.19-5.45,.42-.29,.85-.57,1.29-.83,.26-.16,.53-.31,.8-.46,.14-.07,.29-.15,.44-.23,.06-.03,.13-.07,.19-.1,.27-.14,.55-.27,.83-.4,.21-.1,.42-.18,.62-.27,.51-.21,1.04-.41,1.56-.58,.22-.07,.44-.14,.67-.21,1.43-.41,2.88-.71,4.34-.91,.32-.05,.64-.09,.96-.13,1.45-.17,2.9-.26,4.36-.3,.35-.01,.7-.02,1.05-.02,1.47-.02,2.95,0,4.44,.04,.36,0,.73,.02,1.1,.03,.36,0,.73,.02,1.1,.03,18.72-6.72,36.75-13.99,53.87-21.7h0c.21-.33,.42-.66,.62-.99,.2-.33,.4-.67,.59-1.01,.29-.51,.56-1.02,.83-1.54,.09-.17,.17-.33,.26-.5l.03-.07c.17-.33,.32-.67,.48-1.01,.16-.35,.31-.71,.47-1.07,.17-.38,.32-.77,.46-1.16,.13-.34,.26-.67,.38-1.02-27.84,12.91-58.3,24.65-90.28,34.72-2.71,.85-5.42,1.69-8.13,2.51-.98,.3-1.96,.58-2.94,.87-1.74,.52-3.48,1.04-5.22,1.55-1.15,.33-2.3,.66-3.46,.99-1.56,.45-3.12,.9-4.68,1.34-1.19,.33-2.38,.65-3.56,.98-1.34,.37-2.67,.73-3.99,1.09-13.22-7.26-26.51-15.08-39.54-23.26-5.21-3.27-10.36-6.59-15.45-9.94-.34,.47-.67,.96-.98,1.46-.75,1.21-1.36,2.45-1.88,3.72,4.99,3.3,10.06,6.55,15.17,9.76,11.35,7.13,22.9,13.98,34.44,20.43h0c2.34-.6,4.69-1.22,7.04-1.85l-.25,.07c.08-.02,.17-.04,.25-.07l-2.15,.57-4.84,1.3c1.65,.93,3.3,1.84,4.95,2.75,.48,.27,.96,.54,1.44,.8,.35,.19,.69,.37,1.04,.56h0c26.02,14.19,52.03,26.36,76.72,35.98-.07-.91-.2-1.82-.37-2.71-.18-.89-.41-1.76-.7-2.62Z"/><path class="h" d="M212.13,317.11h0c-56.93-37.54-106-80.41-136.22-119.26l4.66-3.62c29.78,38.27,78.2,80.58,134.43,117.71h0c-.34,.48-.67,.96-.98,1.46-.74,1.21-1.36,2.45-1.88,3.72Z"/><path class="h" d="M268.19,350.88c-.48-.26-.96-.54-1.44-.8,.45,.25,.89,.5,1.34,.74l.11,.06Z"/><path class="h" d="M268.54,345.53l.25-.07c-2.35,.63-4.7,1.24-7.04,1.85h0c2.26-.58,4.53-1.17,6.79-1.78Z"/><polygon class="h" points="261.79 347.33 266.63 346.04 261.79 347.33 261.79 347.33"/><path class="h" d="M268.19,350.88l.28,.15c.25,.14,.51,.27,.76,.41h0c-.35-.19-.69-.37-1.04-.56Z"/><polygon class="h" points="261.74 347.31 261.74 347.31 261.74 347.31 261.74 347.31 261.74 347.31"/><path class="h" d="M268.19,350.88c.09,.05,.18,.1,.28,.15l-.28-.15-.11-.06s.07,.04,.11,.06Z"/><path class="i" d="M475.92,252.66c3.91-2.91,7.59-5.81,11.08-8.68-1.39-33.85-10.84-66.76-27.23-95.99-1.15-2.05-2.34-4.09-3.56-6.11-22.61-37.38-56.86-68.2-100.25-86.35-13.29-5.56-26.83-9.68-40.43-12.42-7.19,1.7-15.27,4.57-21.07,8.22-6.9,4.34-12.23,12.16-11.2,20.24,1.31,10.23,11.45,16.45,19.36,23.09,7.9,6.64,14.39,18.95,7.47,26.61-5.76,6.38-16,4.17-24.39,2.3-8.39-1.88-19.68-1.35-22.44,6.8-1.5,4.44,.56,9.47,3.94,12.71,3.38,3.24,7.88,5.02,12.31,6.55,14.09,4.84,28.8,7.85,43.66,8.95,9.23,.68,18.57,.63,27.6,2.67,9.02,2.04,17.94,6.5,23.03,14.23,5.09,7.73,5.21,19.11-1.43,25.55-9.18,8.9-26.46,5.49-34.3,15.59-5.62,7.25-3.07,18.36,3.15,25.11,6.21,6.75,15.11,10.23,23.64,13.61,8.53,3.38,17.38,7.13,23.22,14.21,.34,.41,.67,.83,.98,1.26,.09,.12,.17,.24,.26,.36,.12,.18,.25,.35,.36,.53,.04,.05,.07,.1,.1,.15,.17,.26,.33,.52,.49,.78,0,0,.01,.02,.02,.03,.15,.24,.29,.48,.43,.72,.09,.15,.18,.31,.26,.47,.04,.06,.06,.11,.09,.16,.1,.19,.2,.38,.29,.57,.14,.26,.26,.53,.38,.79,.13,.27,.25,.55,.37,.83,0,.01,.01,.03,.02,.04,.09,.23,.19,.45,.28,.68,.05,.13,.1,.25,.14,.38,.1,.26,.19,.52,.28,.78,.11,.31,.21,.63,.3,.95,.1,.32,.19,.64,.28,.96,.09,.33,.17,.67,.25,1,.07,.31,.14,.63,.2,.95,.07,.33,.13,.66,.18,.99,0,.03,.01,.07,.02,.11,.05,.29,.09,.58,.13,.88,.09,.66,.16,1.33,.21,2.01,.03,.34,.05,.67,.05,1.01,.09,2.03,0,4.08-.27,6.11-.04,.34-.09,.68-.14,1.02-.1,.68-.22,1.36-.37,2.03-.35,1.68-.82,3.35-1.4,4.98,18.89-8.76,36.56-18.06,52.66-27.76,11.28-6.78,21.71-13.74,31.01-20.66Z"/><path class="h" d="M391.86,302.11l-.03,.07c-.14,.36-.29,.73-.44,1.08-.15,.36-.31,.72-.47,1.07-.16,.34-.31,.68-.48,1.01l-.03,.07c-.04,.08-.08,.16-.12,.24-.04,.09-.09,.17-.14,.26-.09,.17-.18,.35-.27,.52-.18,.34-.36,.69-.56,1.02-.14,.25-.29,.51-.44,.76-.05,.09-.1,.17-.16,.25-.2,.33-.41,.66-.62,.99,21.57-9.72,41.68-20.15,59.83-31.07,1.43-.86,2.84-1.72,4.25-2.59,9.82-6.06,18.97-12.24,27.24-18.4,2.67-1.99,5.24-3.97,7.72-5.95-.01-2.49-.07-4.98-.17-7.46-3.48,2.87-7.16,5.77-11.08,8.68-9.3,6.93-19.73,13.88-31.01,20.66-16.11,9.69-33.77,18.99-52.66,27.76h0c-.1,.28-.2,.55-.3,.83-.02,.07-.05,.13-.08,.2Z"/><path class="h" d="M391.86,302.11c-.15,.39-.3,.78-.46,1.16,.15-.36,.29-.72,.44-1.08l.03-.07Z"/><path class="h" d="M390.16,305.91c-.26,.52-.53,1.04-.83,1.54,.19-.34,.38-.68,.56-1.02,.09-.17,.18-.35,.27-.52Z"/><path class="h" d="M333.15,331.13c-.37-.01-.73-.02-1.1-.03-1.48-.04-2.97-.06-4.44-.04-.35,0-.7,.01-1.05,.02-1.46,.04-2.92,.13-4.36,.3-.32,.03-.64,.08-.96,.13-1.46,.2-2.91,.5-4.34,.91-.23,.06-.45,.13-.67,.21-.53,.17-1.05,.36-1.56,.58-.2,.08-.41,.17-.62,.27-.28,.12-.55,.26-.83,.4-.07,.03-.13,.06-.19,.1-.15,.08-.3,.16-.44,.23-.27,.15-.54,.3-.8,.46-.44,.26-.87,.54-1.29,.83-2.11,1.48-3.93,3.33-5.19,5.44,9.8-3.1,19.46-6.37,28.95-9.77-.36,0-.73-.02-1.1-.03Z"/><path class="h" d="M408.15,406.79c3.74,.82,7.38,1.53,10.94,2.16,1.79-1.67,3.55-3.36,5.29-5.09-4.8-.76-9.78-1.7-14.97-2.84-19.86-4.33-41.94-11.35-65.17-20.61,0,0,0,0,0,0,.24,.55,.46,1.11,.65,1.68,.28,.86,.51,1.73,.7,2.62,.18,.89,.3,1.8,.37,2.71,7.8,3.04,15.47,5.82,22.96,8.34,13.75,4.62,26.91,8.33,39.23,11.02h0Z"/><path class="h" d="M419.09,408.95h0c-3.56-.63-7.2-1.35-10.94-2.16h0c-12.32-2.69-25.49-6.4-39.23-11.02,13.75,4.62,26.91,8.33,39.23,11.02,3.74,.82,7.38,1.53,10.94,2.16Z"/></g><g id="c"/><g id="d"/><g id="e"/></svg>