<?xml version="1.0" encoding="UTF-8"?><svg xmlns="http://www.w3.org/2000/svg" width="553.39" height="540" xmlns:xlink="http://www.w3.org/1999/xlink" viewBox="0 0 553.39 540"><defs><style>.g{fill:url(#c);}.h{fill:url(#b);}.i{fill:#48c7df;}</style><linearGradient id="b" x1="33.63" y1="251.68" x2="530.48" y2="251.68" gradientTransform="matrix(1, 0, 0, 1, 0, 0)" gradientUnits="userSpaceOnUse"><stop offset=".3" stop-color="#00546b"/><stop offset="1" stop-color="#370f25"/></linearGradient><linearGradient id="c" x1="22.91" y1="338.84" x2="344.8" y2="338.84" gradientTransform="matrix(1, 0, 0, 1, 0, 0)" gradientUnits="userSpaceOnUse"><stop offset=".1" stop-color="#00546b"/><stop offset=".68" stop-color="#370f25"/></linearGradient></defs><g id="a"><g><path class="h" d="M530.48,270c0,92.04-49.01,172.64-122.34,217.16-12.88-10.18-32.56-11.01-46.02-1.51-5.61-10.36,1.01-23.42,9.97-31.09,8.92-7.7,20.19-12.59,28.07-21.37,7.92-8.74,10.9-24,1.84-31.56-9.82-8.2-24.43-1.26-35.77,4.68-11.37,5.97-28.5,9.14-34.36-2.27-3.13-6.12-1.01-13.6,1.84-19.9,8.42-18.71,22.63-34.8,40.19-45.45,9.14-5.54,19.25-9.72,27.35-16.7,8.13-6.98,14.1-17.92,11.37-28.28-4.79-17.96-29.15-20.33-47.57-17.92-54.33,7.09-107.48,22.85-156.88,46.53-16.08,7.74-36.63,15.87-50.23,4.35-10.33-8.71-10.51-25.33-3.99-37.13,6.51-11.84,18.06-19.9,29.33-27.31,58.22-38.21,120.69-69.95,185.89-94.45,11.73-4.39,23.78-8.67,33.61-16.44,9.86-7.74,17.27-19.75,16.05-32.2-1.33-13.67-12.85-24.68-25.76-29.36-12.92-4.68-27.06-4.21-40.77-3.27-113.42,7.95-224.57,46.49-318.63,110.36C65.01,92.35,161.98,16.21,276.69,16.21c140.15,0,253.79,113.63,253.79,253.79Z"/><path class="g" d="M343.04,515.01h-.04c-21.12,5.72-43.36,8.78-66.32,8.78-140.15,0-253.79-113.63-253.79-253.79,0-7.7,.36-15.33,1.01-22.81,59.08-33.07,127.63-63.62,189.38-89.74,10.83-4.61,27.67-6.37,30.41,5.11,1.8,7.56-5.07,14.21-11.33,18.85-27.78,20.62-57.46,38.68-83.98,60.88-26.48,22.2-50.16,49.33-61.24,82.11-5.87,17.34-7.2,38.72,5.54,51.92,16.66,17.24,45.27,10.08,67.76,1.69,41.7-15.54,83.44-31.09,125.18-46.63,6.66-2.48,13.6-5.04,20.69-4.35,7.05,.68,14.29,5.58,15.15,12.63,.97,8.31-6.55,14.86-13.28,19.79-20.19,14.68-40.34,29.4-60.52,44.08-7.88,5.76-16.08,11.87-20.33,20.65-4.25,8.78-3.02,21.05,5.33,26.16,7.56,4.64,17.27,1.8,25.66-1.19,21.73-7.74,43.5-15.47,65.27-23.17,5-1.8,10.79-3.49,15.33-.76,6.87,4.14,4.97,15.33-1.08,20.62-6.04,5.29-14.39,6.87-21.7,10.22-7.3,3.31-14.47,10.11-13.24,18.06,1.19,7.59,9.32,11.95,16.8,13.78,7.45,1.84,15.69,2.59,21.48,7.63,4.17,3.67,4.68,13.46,1.87,19.47Z"/><path class="i" d="M333.69,384.14c-2.84,6.3-4.97,13.78-1.84,19.9,5.86,11.41,22.99,8.24,34.36,2.27,11.33-5.94,25.94-12.88,35.77-4.68,9.07,7.56,6.08,22.81-1.84,31.56-7.88,8.78-19.14,13.67-28.07,21.37-8.96,7.66-15.58,20.73-9.97,31.09,13.46-9.5,33.14-8.67,46.02,1.51-20.04,12.16-41.88,21.63-65.09,27.85,2.81-6.01,2.3-15.8-1.87-19.47-5.79-5.04-14.03-5.79-21.48-7.63-7.48-1.84-15.62-6.19-16.8-13.78-1.22-7.95,5.94-14.75,13.24-18.06,7.3-3.35,15.65-4.93,21.7-10.22,6.05-5.29,7.95-16.48,1.08-20.62-4.53-2.73-10.33-1.04-15.33,.76-21.77,7.7-43.54,15.44-65.27,23.17-8.38,2.99-18.1,5.83-25.66,1.19-8.35-5.11-9.57-17.38-5.33-26.16,4.25-8.78,12.45-14.9,20.33-20.65,20.19-14.68,40.34-29.4,60.52-44.08,6.73-4.93,14.25-11.48,13.28-19.79-.86-7.05-8.1-11.95-15.15-12.63-7.09-.68-14.03,1.87-20.69,4.35-41.74,15.54-83.48,31.09-125.18,46.63-22.49,8.38-51.1,15.54-67.76-1.69-12.74-13.21-11.41-34.58-5.54-51.92,11.08-32.78,34.76-59.91,61.24-82.11,26.52-22.2,56.2-40.26,83.98-60.88,6.26-4.64,13.13-11.3,11.33-18.85-2.73-11.48-19.57-9.72-30.41-5.11-61.75,26.12-130.29,56.67-189.38,89.74,1.55-17.34,4.86-34.18,9.72-50.34,94.06-63.87,205.21-102.41,318.63-110.36,13.71-.94,27.85-1.4,40.77,3.27,12.92,4.68,24.43,15.69,25.76,29.36,1.22,12.45-6.19,24.47-16.05,32.2-9.82,7.77-21.88,12.05-33.61,16.44-65.2,24.5-127.67,56.24-185.89,94.45-11.26,7.41-22.81,15.47-29.33,27.31-6.51,11.8-6.33,28.43,3.99,37.13,13.6,11.51,34.15,3.38,50.23-4.35,49.4-23.68,102.55-39.44,156.88-46.53,18.42-2.41,42.78-.04,47.57,17.92,2.73,10.36-3.24,21.3-11.37,28.28-8.1,6.98-18.21,11.15-27.35,16.7-17.56,10.65-31.77,26.74-40.19,45.45Z"/></g></g><g id="d"/><g id="e"/><g id="f"/></svg>