<?xml version="1.0" encoding="UTF-8"?><svg xmlns="http://www.w3.org/2000/svg" width="553.39" height="320.35" xmlns:xlink="http://www.w3.org/1999/xlink" viewBox="0 0 553.39 320.35"><defs><style>.f{fill:url(#b);}.g{stroke:#000;}.g,.h{fill:none;stroke-miterlimit:10;}.g,.i{opacity:.3;}.j{fill:#00546b;}.h{stroke:#1d1d1b;}</style><linearGradient id="b" x1="21.26" y1="162.72" x2="542.85" y2="162.72" gradientTransform="matrix(1, 0, 0, 1, 0, 0)" gradientUnits="userSpaceOnUse"><stop offset="0" stop-color="#ffa45f"/><stop offset="1" stop-color="#ffe4d3"/></linearGradient></defs><g id="a"><path class="j" d="M422.32,172.13c-1.72,23.76-9.65,45.12-21.86,63.39-2.72-.63-5.42-1.26-8.12-1.92-60.23-14.46-119.29-33.47-176.67-56.82-24.96-10.15-50.59-18.62-75.39-29.16-3.11-1.33-6.25-2.61-9.39-3.85,2.5-22.73,10.21-44.77,23.43-63.57,1.07-1.52,2.18-3.03,3.31-4.51,3.05-3.94,6.27-7.69,9.69-11.22,40-41.68,103.37-55.57,159.01-41.57,48.28,12.15,87.52,65.92,94.95,119.25,.35,2.57,.65,5.1,.87,7.62,.67,7.67,.72,15.11,.17,22.34Z"/><path class="j" d="M380.25,259.46c-57.38,54.64-159.25,64.13-217.68-6.03-17.23-20.69-27.79-46.52-31.27-73.32,31.64,14.81,65.46,25.74,97.78,35.39,49.15,14.68,99.82,31.79,151.17,43.97Z"/><path class="f" d="M503.92,275.36c-41.38,.35-82.73-6.21-123.67-15.9-51.35-12.17-102.02-29.29-151.17-43.97-32.32-9.65-66.14-20.58-97.78-35.39-40.18-18.77-76.87-43.79-102.55-80.38-4.27-6.08-8.3-13.11-7.36-20.47,3.07-24.72,44.88-28.96,63.33-29.18,26.02-.3,56.84,7.36,82.6,14.42-3.42,3.53-6.64,7.27-9.69,11.22-1.13,1.48-2.24,2.98-3.31,4.51-12.24-.98-24.22-4.66-36.37-6.88-14.42-2.66-30.33-2.98-42.64,5.01-3.55,2.31-6.77,5.38-8.17,9.36-5.49,15.57,15.57,31.82,26.76,38.78,11.59,7.23,24.35,12.17,36.98,17.29,3.14,1.24,6.27,2.53,9.39,3.85,24.8,10.54,50.44,19.01,75.39,29.16,57.38,23.34,116.44,42.36,176.67,56.82,2.7,.65,5.4,1.28,8.12,1.92,20.95,4.83,42.22,8.69,63.85,7.45,7.82-.46,15.16-4.46,19.12-11.22,6.77-11.54-.72-21.23-8.43-28.48-14.96-14.09-33.12-24.8-52.68-31.14,.54-7.23,.5-14.68-.17-22.34,32.93,13.61,66.85,29.25,94.51,52.09,30.4,25.13,43.68,73.02-12.74,73.47Z"/><path class="h" d="M422.32,172.13s-.07-.02-.09-.02"/><g class="i"><path d="M271.85,284.21c-36.39,0-69-15.11-91.84-42.54-14.39-17.28-23.62-38.93-26.71-62.61l-.04-.27-.25-.12c-39.52-18.46-68.21-40.95-87.72-68.75-3.52-5.01-7.01-10.96-6.22-17.2,2.84-22.83,45.32-24.48,53.81-24.58,.44,0,.88,0,1.32,0,21.32,0,45.93,5.93,69.36,12.34l.29,.08,.21-.21c24.41-25.42,60.57-40.01,99.22-40.01,12.43,0,24.76,1.51,36.64,4.5,19.49,4.91,38.51,18.3,53.57,37.71,14.57,18.79,24.33,41.56,27.47,64.12,.34,2.49,.57,4.56,.74,6.51l.03,.3,.28,.12c28,11.57,57.17,24.98,80.91,44.58,16.58,13.71,25.63,33.76,21.05,46.66-3.54,9.96-14.49,15.31-31.66,15.45-.9,0-1.8,.01-2.7,.01-30.7,0-64.46-4.46-103.22-13.63l-.26-.06-.2,.19c-24.96,23.78-59.25,37.41-94.05,37.41Zm129.98-111.96c-1.42,19.5-7.7,37.7-18.66,54.11l-.4,.6,.71,.16c14.14,3.26,30.87,6.6,47.71,6.6,2.42,0,4.83-.07,7.17-.2,7.14-.42,13.42-4.11,16.79-9.86,6.16-10.49-1.23-19.31-7.31-25.04-12.82-12.08-28.5-21.35-45.35-26.82l-.61-.2-.05,.64ZM126.86,85.64c-8.87,0-16.38,1.96-22.32,5.82-3.7,2.4-6.12,5.19-7.2,8.29-5.21,14.79,16.41,29.64,23.16,33.84,9.22,5.75,19.44,9.88,29.33,13.88l3.06,1.24,.07-.66c2.21-20.04,9.13-38.8,20.01-54.27l.5-.72-.87-.07c-6.76-.54-13.55-2.08-20.12-3.56-3.6-.81-7.32-1.66-11.01-2.33-5.33-.98-10.1-1.46-14.59-1.46Z"/><path d="M283.26,40.84c12.39,0,24.68,1.51,36.52,4.49,19.38,4.88,38.31,18.21,53.29,37.53,14.52,18.72,24.24,41.41,27.37,63.88,.34,2.47,.57,4.54,.74,6.49l.05,.61,.56,.23c27.96,11.55,57.09,24.94,80.78,44.51,16.43,13.58,25.41,33.4,20.89,46.11-3.46,9.75-14.25,14.97-31.19,15.11-.9,0-1.8,.01-2.7,.01-31.09,0-63.85-4.33-103.1-13.62l-.53-.12-.39,.37c-12.14,11.56-27.08,21.06-43.21,27.48-16.12,6.41-33.58,9.8-50.5,9.8-36.23,0-68.72-15.04-91.46-42.36-14.33-17.21-23.53-38.77-26.59-62.35l-.07-.54-.5-.23c-39.43-18.43-68.06-40.86-87.52-68.58-3.47-4.93-6.91-10.78-6.14-16.85,2.79-22.41,44.9-24.04,53.32-24.14,.44,0,.87,0,1.31,0,21.26,0,45.84,5.92,69.23,12.33l.57,.16,.41-.43c24.31-25.33,60.34-39.85,98.85-39.85m-129.96,108.57l.14-1.31c2.2-19.96,9.09-38.64,19.92-54.03l1.01-1.43-1.75-.14c-6.72-.54-13.49-2.07-20.05-3.55-3.61-.82-7.34-1.66-11.03-2.33-5.36-.99-10.16-1.47-14.68-1.47h0c-8.97,0-16.57,1.99-22.59,5.9-3.79,2.46-6.28,5.34-7.4,8.54-5.34,15.14,16.53,30.18,23.36,34.43,9.26,5.78,19.51,9.92,29.42,13.92l2.43,.98,1.22,.5m277.88,84.82c2.43,0,4.85-.07,7.2-.2,7.3-.43,13.73-4.21,17.19-10.11,6.34-10.8-1.19-19.81-7.4-25.65-12.88-12.13-28.62-21.44-45.54-26.93l-1.21-.39-.09,1.27c-1.41,19.41-7.66,37.53-18.58,53.87l-.8,1.2,1.41,.33c14.17,3.27,30.93,6.61,47.82,6.61M283.26,39.84c-36.96,0-73.89,13.4-99.58,40.16-21.65-5.92-47.47-12.36-69.49-12.36-.44,0-.88,0-1.32,0-15.81,.19-51.66,3.82-54.3,25.02-.8,6.31,2.65,12.35,6.31,17.55,22.02,31.37,53.47,52.82,87.92,68.91,2.99,22.98,12.05,45.13,26.82,62.86,24.7,29.66,58.46,42.72,92.23,42.72s69.46-13.8,94.4-37.55c34.21,8.09,68.75,13.64,103.33,13.64,.9,0,1.8,0,2.7-.01,48.38-.4,36.98-41.45,10.92-62.99-23.72-19.59-52.8-32.99-81.04-44.66-.19-2.17-.44-4.34-.74-6.54-6.37-45.73-40.01-91.82-81.41-102.25-11.98-3.01-24.37-4.52-36.76-4.52h0Zm-130.81,108.14c-10.83-4.39-21.77-8.63-31.7-14.83-9.6-5.97-27.65-19.9-22.95-33.25,1.2-3.42,3.96-6.05,7.01-8.03,6.51-4.23,14.21-5.74,22.05-5.74,4.86,0,9.78,.58,14.5,1.45,10.42,1.9,20.69,5.06,31.18,5.9-11.34,16.11-17.95,35-20.1,54.5h0Zm278.73,85.24c-16.09,0-31.95-2.97-47.6-6.59,10.47-15.67,17.27-33.98,18.75-54.35,16.77,5.44,32.34,14.62,45.16,26.7,6.61,6.21,13.03,14.52,7.22,24.42-3.39,5.79-9.69,9.22-16.39,9.62-2.39,.14-4.77,.2-7.14,.2h0Z"/></g><path class="g" d="M353.51,170.47s-.06-.02-.07-.02"/></g><g id="c"/><g id="d"/><g id="e"/></svg>