<?xml version="1.0" encoding="UTF-8"?><svg xmlns="http://www.w3.org/2000/svg" width="1920" height="1080" xmlns:xlink="http://www.w3.org/1999/xlink" viewBox="0 0 1920 1080"><defs><style>.f{fill:url(#e);}.g{fill:none;}.h{fill:#fff39a;}.i{fill:#0f1b3f;}</style><pattern id="e" x="0" y="0" width="645.1" height="1049.52" patternUnits="userSpaceOnUse" viewBox="0 0 645.1 1049.52"><g><rect class="g" x="0" width="645.1" height="1049.52"/><g><circle class="h" cx="607.94" cy="919.43" r="1.09"/><circle class="h" cx="587.14" cy="935.65" r="2.35"/></g><circle class="h" cx="280.02" cy="943.32" r="1.09"/><circle class="h" cx="484.92" cy="857.94" r="1.09"/><g><circle class="h" cx="124.11" cy="657.05" r="1.09"/><circle class="h" cx="103.31" cy="673.27" r="2.35"/><circle class="h" cx="441.3" cy="680.94" r="1.09"/><circle class="h" cx="481.47" cy="915.98" r="2.35"/></g><g><circle class="h" cx="285.38" cy="394.66" r="1.09"/><circle class="h" cx="264.59" cy="410.89" r="2.35"/><circle class="h" cx="602.57" cy="418.56" r="1.09"/><circle class="h" cx="1.09" cy="595.56" r="1.09"/><circle class="h" cx="642.75" cy="653.6" r="2.35"/></g><g><circle class="h" cx="446.66" cy="132.28" r="1.09"/><circle class="h" cx="425.86" cy="148.51" r="2.35"/><circle class="h" cx="162.37" cy="333.18" r="1.09"/></g><g><circle class="h" cx="118.74" cy="156.17" r="1.09"/><circle class="h" cx="158.92" cy="391.22" r="2.35"/></g><circle class="h" cx="323.64" cy="70.8" r="1.09"/><circle class="h" cx="320.2" cy="128.84" r="2.35"/></g></pattern></defs><g id="a"/><g id="b"><rect class="i" y="1.1" width="1920" height="1077.8"/></g><g id="c"/><g id="d"><rect class="f" y="1.1" width="1920" height="1077.8"/></g></svg>