<?xml version="1.0" encoding="utf-8"?>
<!-- Generator: Adobe Illustrator 26.2.1, SVG Export Plug-In . SVG Version: 6.00 Build 0)  -->
<svg version="1.1" id="a" xmlns="http://www.w3.org/2000/svg" xmlns:xlink="http://www.w3.org/1999/xlink" x="0px" y="0px"
	 viewBox="0 0 2197.8 8903.5" style="enable-background:new 0 0 2197.8 8903.5;" xml:space="preserve">
<style type="text/css">
	.st0{fill:none;}
	.st1{fill:#FFF39A;}
	.st2{fill:#0F1B3F;}
	.st3{fill:url(#SVGID_1_);}
</style>
<pattern  y="8903.5" width="645.1" height="1049.5" patternUnits="userSpaceOnUse" id="b" viewBox="0 -1049.5 645.1 1049.5" style="overflow:visible;">
	<g>
		<rect y="-1049.5" class="st0" width="645.1" height="1049.5"/>
		<g>
			<rect y="-1049.5" class="st0" width="645.1" height="1049.5"/>
			<g>
				<circle class="st1" cx="607.9" cy="-919.4" r="1.1"/>
				<circle class="st1" cx="587.1" cy="-935.7" r="2.3"/>
			</g>
			<circle class="st1" cx="280" cy="-943.3" r="1.1"/>
			<circle class="st1" cx="484.9" cy="-857.9" r="1.1"/>
			<g>
				<circle class="st1" cx="124.1" cy="-657" r="1.1"/>
				<circle class="st1" cx="103.3" cy="-673.3" r="2.3"/>
				<circle class="st1" cx="441.3" cy="-680.9" r="1.1"/>
				<circle class="st1" cx="481.5" cy="-916" r="2.3"/>
			</g>
			<g>
				<circle class="st1" cx="285.4" cy="-394.7" r="1.1"/>
				<circle class="st1" cx="264.6" cy="-410.9" r="2.4"/>
				<circle class="st1" cx="602.6" cy="-418.6" r="1.1"/>
				<circle class="st1" cx="1.1" cy="-595.6" r="1.1"/>
				<circle class="st1" cx="642.8" cy="-653.6" r="2.3"/>
			</g>
			<g>
				<circle class="st1" cx="446.7" cy="-132.3" r="1.1"/>
				<circle class="st1" cx="425.9" cy="-148.5" r="2.4"/>
				<circle class="st1" cx="162.4" cy="-333.2" r="1.1"/>
			</g>
			<g>
				<circle class="st1" cx="118.7" cy="-156.2" r="1.1"/>
				<circle class="st1" cx="158.9" cy="-391.2" r="2.4"/>
			</g>
			<circle class="st1" cx="323.6" cy="-70.8" r="1.1"/>
			<circle class="st1" cx="320.2" cy="-128.8" r="2.4"/>
		</g>
	</g>
</pattern>
<rect x="1.1" y="0" class="st2" width="2196.7" height="8903.5"/>
<pattern  id="SVGID_1_" xlink:href="#b" patternTransform="matrix(1 0 0 -1 -420 -26229.541)">
</pattern>
<polygon class="st3" points="2197.8,0 2197.8,8903.5 1.1,8903.5 1.1,0 "/>
</svg>
