<?xml version="1.0" encoding="UTF-8"?><svg id="a" xmlns="http://www.w3.org/2000/svg" width="2197.8" height="8903.53" xmlns:xlink="http://www.w3.org/1999/xlink" viewBox="0 0 2197.8 8903.53"><defs><style>.c{fill:url(#b);}.d{fill:none;}.e{fill:#fff39a;}.f{fill:#0f1b3f;}</style><pattern id="b" x="0" y="0" width="645.1" height="1049.52" patternTransform="translate(-420 -15226.97) scale(1 -1)" patternUnits="userSpaceOnUse" viewBox="0 0 645.1 1049.52"><g><rect class="d" width="645.1" height="1049.52"/><g><rect class="d" width="645.1" height="1049.52"/><g><circle class="e" cx="607.94" cy="130.09" r="1.09"/><circle class="e" cx="587.14" cy="113.87" r="2.35"/></g><circle class="e" cx="280.02" cy="106.2" r="1.09"/><circle class="e" cx="484.92" cy="191.58" r="1.09"/><g><circle class="e" cx="124.11" cy="392.47" r="1.09"/><circle class="e" cx="103.31" cy="376.25" r="2.35"/><circle class="e" cx="441.3" cy="368.58" r="1.09"/><circle class="e" cx="481.47" cy="133.54" r="2.35"/></g><g><circle class="e" cx="285.38" cy="654.86" r="1.09"/><circle class="e" cx="264.59" cy="638.63" r="2.35"/><circle class="e" cx="602.57" cy="630.96" r="1.09"/><circle class="e" cx="1.09" cy="453.96" r="1.09"/><circle class="e" cx="642.75" cy="395.92" r="2.35"/></g><g><circle class="e" cx="446.66" cy="917.24" r="1.09"/><circle class="e" cx="425.86" cy="901.01" r="2.35"/><circle class="e" cx="162.37" cy="716.34" r="1.09"/></g><g><circle class="e" cx="118.74" cy="893.35" r="1.09"/><circle class="e" cx="158.92" cy="658.3" r="2.35"/></g><circle class="e" cx="323.64" cy="978.72" r="1.09"/><circle class="e" cx="320.2" cy="920.68" r="2.35"/></g></g></pattern></defs><rect class="f" x="1.1" y="0" width="2196.7" height="8903.53"/><polygon class="c" points="2197.8 0 2197.8 8903.53 1.1 8903.53 1.1 0 2197.8 0"/></svg>